<svg xmlns="http://www.w3.org/2000/svg" viewBox="0 0 2249 996" preserveAspectRatio="xMidYMid meet">
<g transform="translate(0,996) scale(0.1,-0.1)" fill="currentColor" stroke="none">
<path d="M5305 8514 c-60 -9 -171 -55 -220 -92 -75 -56 -141 -149 -166 -235
-12 -40 -27 -75 -32 -79 -6 -3 -31 -9 -56 -13 -71 -11 -200 -42 -321 -80 -326
-100 -662 -266 -939 -464 l-114 -82 -71 33 c-68 32 -75 33 -197 33 -124 0
-126 0 -200 -37 -245 -121 -340 -413 -211 -652 l27 -51 -86 -130 c-199 -299
-368 -692 -450 -1045 -16 -69 -29 -137 -29 -151 0 -24 -5 -27 -59 -38 -179
-35 -319 -175 -366 -366 -28 -113 -5 -249 59 -350 64 -99 193 -190 303 -213
l37 -8 17 -96 c66 -376 246 -817 470 -1153 l66 -100 -32 -48 c-52 -76 -70
-147 -69 -262 1 -119 22 -183 89 -274 116 -158 315 -226 505 -173 36 10 85 30
109 44 l44 26 94 -70 c358 -265 826 -475 1226 -548 59 -11 112 -22 116 -25 5
-2 12 -22 16 -42 11 -60 56 -142 108 -200 245 -268 690 -170 800 176 l22 71
55 10 c487 92 983 310 1328 583 l63 49 58 -31 c333 -177 722 72 698 448 -4 76
-10 95 -52 177 l-46 92 46 63 c102 139 250 404 325 584 70 170 173 513 195
650 l6 40 71 17 c128 31 251 125 312 237 125 232 32 532 -201 649 -32 16 -81
35 -110 41 l-52 13 -11 56 c-90 449 -258 853 -509 1226 l-48 71 22 35 c60 97
84 229 61 341 -46 218 -241 379 -459 379 -81 0 -126 -10 -209 -47 l-57 -25
-83 60 c-358 260 -822 467 -1226 547 -120 24 -141 34 -142 62 0 32 -46 129
-86 183 -91 124 -286 206 -439 184z m-361 -697 c74 -151 238 -247 421 -247
181 0 342 95 419 249 15 28 29 51 31 51 12 0 205 -43 255 -57 237 -65 560
-204 770 -331 119 -72 280 -182 280 -191 0 -11 -29 -81 -34 -81 -2 0 -57 13
-122 30 -498 124 -1114 96 -1609 -74 -332 -113 -650 -289 -900 -498 -460 -383
-772 -907 -850 -1425 -33 -221 -14 -538 44 -723 11 -35 18 -66 16 -68 -12 -12
-191 334 -245 474 -36 94 -93 290 -114 394 -70 345 -79 625 -32 965 21 153 57
331 68 339 2 2 31 18 64 35 87 46 168 130 212 221 33 68 37 84 40 178 4 88 1
112 -18 163 -12 34 -20 62 -18 63 1 1 23 18 48 37 294 231 711 423 1115 514
66 15 122 29 124 31 7 7 9 5 35 -49z m1620 -747 c99 -10 383 -63 479 -90 21
-6 41 -19 44 -28 86 -259 338 -399 583 -323 l62 19 76 -116 c190 -291 341
-654 426 -1025 23 -101 23 -103 -34 -132 -132 -67 -228 -220 -238 -380 -10
-171 82 -346 225 -427 29 -16 53 -34 53 -39 0 -19 -41 -188 -68 -284 -62 -212
-149 -425 -247 -605 -54 -100 -197 -321 -218 -338 -10 -8 -69 -1 -104 13 -1 0
7 34 17 75 49 186 80 469 80 724 -1 386 -76 751 -230 1112 -262 618 -748 1107
-1357 1368 -175 75 -444 136 -659 151 -148 10 -432 -29 -573 -79 -71 -26 -70
-19 7 29 129 80 306 165 477 228 234 86 522 144 780 156 166 7 271 5 419 -9z
m-3500 -447 c32 -6 33 6 -2 -193 -32 -182 -42 -311 -42 -537 0 -336 41 -610
135 -901 225 -695 691 -1259 1295 -1566 218 -111 462 -184 713 -213 128 -15
166 -15 283 -5 153 14 244 31 347 66 40 13 74 23 76 21 13 -14 -285 -172 -419
-224 -376 -144 -680 -201 -1060 -202 -234 0 -415 20 -636 71 -167 39 -156 33
-188 102 -34 74 -126 169 -202 210 -115 62 -255 75 -380 34 -19 -6 -31 9 -101
121 -193 308 -302 560 -378 878 -19 77 -37 165 -41 195 l-6 55 37 14 c51 18
174 144 207 212 110 226 31 487 -185 613 -53 31 -52 15 -11 196 78 340 214
652 428 983 50 78 60 88 79 82 12 -4 35 -9 51 -12z m2605 -148 c357 -80 641
-244 866 -501 96 -110 143 -182 210 -319 60 -123 105 -257 132 -390 25 -125
24 -441 -1 -570 -63 -316 -193 -562 -415 -786 -213 -215 -508 -372 -815 -435
-101 -21 -403 -30 -507 -15 -333 47 -638 198 -869 430 -139 140 -227 268 -312
456 -182 404 -171 910 28 1306 115 229 270 413 465 551 209 148 406 230 684
284 97 18 432 12 534 -11z m1474 -1108 c151 -259 259 -578 304 -897 22 -157
25 -556 5 -705 -17 -128 -56 -320 -83 -412 -21 -71 -23 -72 -76 -99 -68 -35
-160 -132 -196 -207 -50 -106 -58 -253 -20 -349 l17 -41 -35 -29 c-56 -48
-247 -172 -363 -237 -228 -126 -463 -219 -721 -284 -218 -55 -197 -56 -238 11
-141 229 -420 308 -643 181 -68 -38 -148 -118 -186 -186 -30 -54 -32 -55 -67
-48 -387 69 -839 261 -1146 486 -136 99 -127 90 -114 129 6 19 15 38 19 43 3
4 44 -2 91 -12 267 -64 582 -88 894 -70 419 25 808 130 1163 315 576 299 994
728 1232 1264 114 256 172 537 164 791 -3 112 -36 328 -64 417 -10 34 -15 60
-10 57 4 -3 37 -56 73 -118z M5180 6066 c-455 -84 -803 -417 -907 -869 -12
-50 -17 -120 -17 -232 0 -142 3 -171 27 -262 178 -679 896 -1025 1541 -744
220 96 447 331 551 570 128 293 122 630 -15 918 -120 253 -351 465 -612 563
-166 61 -407 85 -568 56z M11290 7111 c-361 -63 -645 -205 -886 -446 -119
-118 -176 -193 -247 -322 -144 -261 -205 -522 -194 -828 15 -413 171 -764 466
-1048 403 -386 1013 -526 1632 -372 267 66 555 238 740 440 299 328 432 720
398 1175 -28 376 -171 692 -433 955 -218 218 -495 365 -821 435 -143 31 -503
37 -655 11z m572 -631 c303 -102 513 -330 594 -645 45 -176 39 -410 -14 -565
-81 -233 -251 -431 -455 -529 -125 -61 -212 -82 -362 -88 -270 -11 -491 70
-671 244 -114 111 -203 265 -249 433 -23 84 -32 333 -15 426 58 334 260 590
557 706 118 46 197 58 368 54 139 -3 157 -5 247 -36z M17318 7082 l-418 -2 0
-1500 0 -1500 923 0 c998 0 1033 2 1241 55 118 31 262 96 351 160 158 113 252
287 277 513 37 333 -103 623 -375 777 -133 75 -127 67 -69 104 90 58 189 173
237 275 60 127 76 205 70 346 -5 137 -22 207 -76 317 -112 226 -322 356 -709
439 -46 9 -929 20 -1452 16z m1210 -552 c140 -23 230 -79 280 -174 23 -45 26
-62 26 -146 -1 -165 -55 -237 -230 -302 -57 -21 -75 -22 -521 -26 l-463 -4 -1
311 c-1 171 -2 317 -3 324 -1 6 -1 15 1 20 6 11 839 8 911 -3z m192 -1214
c118 -38 178 -87 231 -186 21 -39 24 -59 24 -150 0 -98 -2 -109 -30 -159 -50
-90 -124 -139 -253 -166 -60 -12 -162 -15 -572 -15 l-499 0 -3 346 c-2 190 -1
348 2 350 2 3 239 4 525 2 468 -3 526 -6 575 -22z M20548 7082 l-348 -2 0
-1500 0 -1500 365 0 365 0 -2 1502 c-3 1326 -5 1501 -18 1502 -8 1 -171 0
-362 -2z M13710 5580 l0 -1500 365 0 365 0 2 428 3 427 307 3 306 2 244 -367
c135 -203 262 -396 284 -430 l39 -63 398 0 c376 0 397 1 388 18 -6 9 -55 82
-110 162 -55 80 -135 197 -177 260 -43 63 -143 208 -221 321 -79 114 -143 211
-143 215 0 5 31 26 69 46 396 214 592 674 492 1154 -39 189 -125 349 -261 485
-151 151 -321 239 -591 305 l-114 28 -822 3 -823 4 0 -1501z m1513 906 c165
-32 295 -127 360 -263 31 -67 32 -70 32 -213 0 -142 -1 -146 -32 -212 -58
-123 -146 -198 -288 -246 l-80 -26 -387 -4 -388 -3 0 494 0 495 353 -4 c258
-2 373 -7 430 -18z M16879 3476 c-2 -2 -3 -346 -1 -763 l2 -758 550 0 550 0 0
93 0 92 -445 0 -445 0 0 250 0 250 375 0 375 0 0 90 0 90 -27 1 c-16 0 -184 0
-375 0 l-348 -1 0 240 0 240 425 0 425 0 0 90 0 90 -528 0 c-291 0 -531 -2
-533 -4z M18295 3468 c-7 -19 -1 -1495 6 -1502 6 -6 61 -9 152 -7 l57 1 0 240
0 240 232 -2 232 -3 99 -140 c55 -77 130 -184 167 -239 l66 -98 114 1 c63 1
116 4 118 6 4 4 -15 31 -245 357 l-111 156 63 31 c239 118 338 423 220 678
-60 129 -175 219 -342 265 -72 20 -106 22 -451 26 -307 3 -373 1 -377 -10z
m770 -191 c113 -37 188 -111 219 -217 43 -144 -4 -290 -119 -366 -91 -60 -123
-66 -402 -71 l-253 -5 0 342 0 342 253 -4 c200 -3 262 -8 302 -21z M19855
3468 c-3 -7 -4 -350 -3 -763 l3 -750 105 0 105 1 3 241 2 241 273 4 c236 4
282 8 349 26 104 28 165 61 237 128 108 100 159 238 148 404 -16 238 -156 397
-402 456 -95 23 -812 34 -820 12z m780 -193 c94 -34 152 -83 193 -160 24 -45
27 -61 27 -150 0 -90 -3 -106 -29 -158 -18 -39 -44 -71 -77 -97 -90 -71 -189
-90 -476 -90 l-203 0 0 341 0 341 258 -4 c218 -4 265 -7 307 -23z"/>
</g>
</svg>