<svg xmlns="http://www.w3.org/2000/svg" viewBox="0 0 832 790" preserveAspectRatio="xMidYMid meet">
<g transform="translate(0,790) scale(0.1,-0.1)" fill="currentColor" stroke="none">
<path d="M4025 7524 c-60 -9 -171 -55 -220 -92 -75 -56 -141 -149 -166 -235
-12 -40 -27 -75 -32 -79 -6 -3 -31 -9 -56 -13 -71 -11 -200 -42 -321 -80 -326
-100 -662 -266 -939 -464 l-114 -82 -71 33 c-68 32 -75 33 -197 33 -124 0
-126 0 -200 -37 -245 -121 -340 -413 -211 -652 l27 -51 -86 -130 c-199 -299
-368 -692 -450 -1045 -16 -69 -29 -137 -29 -151 0 -24 -5 -27 -59 -38 -179
-35 -319 -175 -366 -366 -28 -113 -5 -249 59 -350 64 -99 193 -190 303 -213
l37 -8 17 -96 c66 -376 246 -817 470 -1153 l66 -100 -32 -48 c-52 -76 -70
-147 -69 -262 1 -119 22 -183 89 -274 116 -158 315 -226 505 -173 36 10 85 30
109 44 l44 26 94 -70 c358 -265 826 -475 1226 -548 59 -11 112 -22 116 -25 5
-2 12 -22 16 -42 11 -60 56 -142 108 -200 245 -268 690 -170 800 176 l22 71
55 10 c487 92 983 310 1328 583 l63 49 58 -31 c333 -177 722 72 698 448 -4 76
-10 95 -52 177 l-46 92 46 63 c102 139 250 404 325 584 70 170 173 513 195
650 l6 40 71 17 c128 31 251 125 312 237 125 232 32 532 -201 649 -32 16 -81
35 -110 41 l-52 13 -11 56 c-90 449 -258 853 -509 1226 l-48 71 22 35 c60 97
84 229 61 341 -46 218 -241 379 -459 379 -81 0 -126 -10 -209 -47 l-57 -25
-83 60 c-358 260 -822 467 -1226 547 -120 24 -141 34 -142 62 0 32 -46 129
-86 183 -91 124 -286 206 -439 184z m-361 -697 c74 -151 238 -247 421 -247
181 0 342 95 419 249 15 28 29 51 31 51 12 0 205 -43 255 -57 237 -65 560
-204 770 -331 119 -72 280 -182 280 -191 0 -11 -29 -81 -34 -81 -2 0 -57 13
-122 30 -498 124 -1114 96 -1609 -74 -332 -113 -650 -289 -900 -498 -460 -383
-772 -907 -850 -1425 -33 -221 -14 -538 44 -723 11 -35 18 -66 16 -68 -12 -12
-191 334 -245 474 -36 94 -93 290 -114 394 -70 345 -79 625 -32 965 21 153 57
331 68 339 2 2 31 18 64 35 87 46 168 130 212 221 33 68 37 84 40 178 4 88 1
112 -18 163 -12 34 -20 62 -18 63 1 1 23 18 48 37 294 231 711 423 1115 514
66 15 122 29 124 31 7 7 9 5 35 -49z m1620 -747 c99 -10 383 -63 479 -90 21
-6 41 -19 44 -28 86 -259 338 -399 583 -323 l62 19 76 -116 c190 -291 341
-654 426 -1025 23 -101 23 -103 -34 -132 -132 -67 -228 -220 -238 -380 -10
-171 82 -346 225 -427 29 -16 53 -34 53 -39 0 -19 -41 -188 -68 -284 -62 -212
-149 -425 -247 -605 -54 -100 -197 -321 -218 -338 -10 -8 -69 -1 -104 13 -1 0
7 34 17 75 49 186 80 469 80 724 -1 386 -76 751 -230 1112 -262 618 -748 1107
-1357 1368 -175 75 -444 136 -659 151 -148 10 -432 -29 -573 -79 -71 -26 -70
-19 7 29 129 80 306 165 477 228 234 86 522 144 780 156 166 7 271 5 419 -9z
m-3500 -447 c32 -6 33 6 -2 -193 -32 -182 -42 -311 -42 -537 0 -336 41 -610
135 -901 225 -695 691 -1259 1295 -1566 218 -111 462 -184 713 -213 128 -15
166 -15 283 -5 153 14 244 31 347 66 40 13 74 23 76 21 13 -14 -285 -172 -419
-224 -376 -144 -680 -201 -1060 -202 -234 0 -415 20 -636 71 -167 39 -156 33
-188 102 -34 74 -126 169 -202 210 -115 62 -255 75 -380 34 -19 -6 -31 9 -101
121 -193 308 -302 560 -378 878 -19 77 -37 165 -41 195 l-6 55 37 14 c51 18
174 144 207 212 110 226 31 487 -185 613 -53 31 -52 15 -11 196 78 340 214
652 428 983 50 78 60 88 79 82 12 -4 35 -9 51 -12z m2605 -148 c357 -80 641
-244 866 -501 96 -110 143 -182 210 -319 60 -123 105 -257 132 -390 25 -125
24 -441 -1 -570 -63 -316 -193 -562 -415 -786 -213 -215 -508 -372 -815 -435
-101 -21 -403 -30 -507 -15 -333 47 -638 198 -869 430 -139 140 -227 268 -312
456 -182 404 -171 910 28 1306 115 229 270 413 465 551 209 148 406 230 684
284 97 18 432 12 534 -11z m1474 -1108 c151 -259 259 -578 304 -897 22 -157
25 -556 5 -705 -17 -128 -56 -320 -83 -412 -21 -71 -23 -72 -76 -99 -68 -35
-160 -132 -196 -207 -50 -106 -58 -253 -20 -349 l17 -41 -35 -29 c-56 -48
-247 -172 -363 -237 -228 -126 -463 -219 -721 -284 -218 -55 -197 -56 -238 11
-141 229 -420 308 -643 181 -68 -38 -148 -118 -186 -186 -30 -54 -32 -55 -67
-48 -387 69 -839 261 -1146 486 -136 99 -127 90 -114 129 6 19 15 38 19 43 3
4 44 -2 91 -12 267 -64 582 -88 894 -70 419 25 808 130 1163 315 576 299 994
728 1232 1264 114 256 172 537 164 791 -3 112 -36 328 -64 417 -10 34 -15 60
-10 57 4 -3 37 -56 73 -118z M3900 5076 c-455 -84 -803 -417 -907 -869 -12
-50 -17 -120 -17 -232 0 -142 3 -171 27 -262 178 -679 896 -1025 1541 -744
220 96 447 331 551 570 128 293 122 630 -15 918 -120 253 -351 465 -612 563
-166 61 -407 85 -568 56z"/>
</g>
</svg>