<svg xmlns="http://www.w3.org/2000/svg" viewBox="0 0 799 124" preserveAspectRatio="xMidYMid meet">
<!-- ORBI -->
<g transform="translate(0,124) scale(0.1,-0.1)" fill="#0A0A01" stroke="none">
<path d="M507 1225 c-297 -57 -497 -301 -497 -606 0 -170 56 -305 175 -424
124 -124 277 -185 469 -186 56 0 124 5 151 11 142 31 291 117 365 211 52 66
105 178 120 253 17 83 14 221 -5 297 -52 201 -220 372 -425 434 -77 23 -256
28 -353 10z m316 -263 c168 -83 245 -321 164 -505 -61 -136 -192 -214 -345
-205 -148 9 -250 79 -315 216 -29 61 -32 76 -31 157 1 112 26 183 90 254 83
93 155 122 285 118 74 -3 96 -8 152 -35z"/>
<path d="M1504 1193 c2 -16 4 -286 5 -601 l1
-573 133 3 132 3 5 170 5 170 120 0 119 0 116 -165 115 -165 153 -3 c83 -1
152 0 152 2 0 3 -35 56 -78 118 -43 62 -102 147 -130 190 l-51 76 47 31 c105
67 165 162 183 287 30 216 -99 404 -320 466 -57 16 -106 18 -388 18 l-322 0 3
-27z m618 -213 c137 -38 181 -223 78 -321 -51 -48 -100 -59 -274 -59 l-146 0
0 195 0 195 153 0 c83 0 169 -5 189 -10z"/>
<path d="M2750 625 l0 -596 403 3 c394 3 403
4 467 27 36 13 83 36 105 50 154 102 147 384 -13 504 l-53 40 29 27 c78 71
114 180 93 282 -23 108 -97 185 -222 230 -62 22 -76 23 -436 26 l-373 3 0
-596z m685 364 c37 -18 75 -73 75 -111 0 -57 -26 -97 -77 -120 -43 -19 -67
-22 -228 -22 l-180 -1 -3 124 c-1 69 0 131 3 139 8 20 365 13 410 -9z m45
-482 c70 -34 97 -135 54 -194 -40 -54 -60 -58 -296 -61 l-218 -3 0 134 c0 73
3 137 7 141 4 4 100 6 213 4 172 -2 211 -6 240 -21z"/>
<path d="M4030 626 l0 -594 58 -6
c31 -3 92 -5 136 -3 l78 2 -1 140 c0 77 -1 346 -1 598 l0 457 -135 0 -135 0 0
-594z"/>
</g>
<!-- ERP -->
<g transform="translate(0,124) scale(0.1,-0.1)" fill="#0B0B02" stroke="none">
<path d="M4980 625 l0 -545 395 0 395 0 0 60 0 60 -320 0 -320 0 0 185 0 185 270
0 270 0 0 60 0 60 -270 0 -270 0 0 175 0 175 308 2 307 3 0 60 0 60 -382 3
-383 3 0 -546z"/>
<path d="M6000 626 l0 -546 70 0 70 0 0 170 0 170 178 0 177 0 43 -63
c23 -34 71 -105 107 -158 36 -53 72 -103 81 -110 11 -9 43 -14 91 -14 40 0 73
2 73 4 0 2 -56 84 -125 183 -69 98 -125 181 -125 183 0 2 21 15 46 30 75 44
119 90 150 157 26 57 29 73 29 163 -1 82 -5 109 -24 152 -26 59 -97 130 -162
164 -91 46 -130 51 -411 56 l-268 5 0 -546z m585 386 c85 -39 118 -81 135
-172 20 -108 -24 -211 -108 -254 -72 -37 -150 -47 -317 -44 l-150 3 -3 248 -2
249 197 -4 c182 -3 202 -5 248 -26z"/>
<path d="M7110 625 c0 -512 1 -545 18 -546 9 -1 42
-2 72 -3 l55 -1 2 173 2 174 163 -1 c193 -1 268 8 345 44 87 40 137 86 175
163 31 62 33 73 32 167 0 81 -5 109 -23 150 -36 79 -84 131 -156 165 -103 49
-186 60 -451 60 l-234 0 0 -545z m572 392 c53 -24 106 -73 130 -120 16 -33 19
-55 16 -118 -4 -101 -35 -150 -123 -194 -60 -30 -62 -30 -252 -33 l-193 -4 0
134 c0 73 -2 182 -5 242 -2 60 -2 112 0 115 1 3 90 4 197 1 152 -5 201 -9 230
-23z"/>
</g>
</svg>
